<svg xmlns="http://www.w3.org/2000/svg" viewBox="0 0 1200 280" fill="none">
  <g fill="#1a2744" fill-opacity="0.9">
    <!-- left cluster -->
    <rect x="40" y="140" width="48" height="120"/>
    <rect x="96" y="100" width="36" height="160"/>
    <rect x="140" y="160" width="56" height="100"/>
    <rect x="204" y="80" width="44" height="180"/>
    <rect x="256" y="120" width="40" height="140"/>
    <!-- empire-ish -->
    <rect x="320" y="40" width="52" height="220"/>
    <rect x="336" y="20" width="20" height="30"/>
    <rect x="342" y="8" width="8" height="20"/>
    <rect x="384" y="90" width="60" height="170"/>
    <rect x="456" y="130" width="48" height="130"/>
    <rect x="512" y="70" width="40" height="190"/>
    <!-- chrysler-ish -->
    <polygon points="580,220 580,50 600,30 620,50 620,220"/>
    <rect x="640" y="110" width="50" height="150"/>
    <rect x="700" y="150" width="70" height="110"/>
    <rect x="780" y="60" width="48" height="200"/>
    <rect x="840" y="100" width="36" height="160"/>
    <!-- freedom tower-ish -->
    <polygon points="900,220 920,20 940,20 980,220"/>
    <rect x="1000" y="120" width="44" height="140"/>
    <rect x="1056" y="150" width="60" height="110"/>
    <rect x="1128" y="90" width="40" height="170"/>
  </g>
  <rect x="0" y="218" width="1200" height="4" fill="#1a2744" fill-opacity="0.55"/>
</svg>
